<?xml version="1.0" standalone="no"?>
<!DOCTYPE svg PUBLIC "-//W3C//DTD SVG 20010904//EN"
 "http://www.w3.org/TR/2001/REC-SVG-20010904/DTD/svg10.dtd">
<svg version="1.0" xmlns="http://www.w3.org/2000/svg"
 width="740.000000pt" height="740.000000pt" viewBox="0 0 740.000000 740.000000"
 preserveAspectRatio="xMidYMid meet">

<g transform="translate(0.000000,740.000000) scale(0.100000,-0.100000)"
fill="#000000" stroke="none">
<path d="M2365 6455 c-743 -105 -1323 -685 -1420 -1423 -12 -93 -15 -247 -13
-875 1 -419 5 -688 8 -597 3 91 7 147 8 125 2 -39 3 -41 49 -53 27 -7 55 -13
63 -14 8 -1 21 -9 28 -20 7 -10 24 -18 36 -18 13 0 29 -7 36 -15 10 -13 9 -15
-11 -16 -21 -1 -21 -2 -4 -6 11 -3 31 -15 45 -28 27 -25 77 -45 66 -26 -12 19
7 12 33 -13 15 -13 48 -31 74 -40 65 -22 98 -40 121 -65 14 -16 16 -21 5 -21
-12 0 -11 -2 1 -10 9 -5 17 -5 20 0 5 8 61 -5 80 -18 3 -2 8 -29 11 -60 5 -49
7 -41 10 53 3 93 4 79 9 -90 3 -110 7 154 8 587 1 488 6 816 13 865 78 573
519 1012 1089 1082 53 7 410 11 970 11 911 0 982 -3 1135 -41 400 -102 738
-417 868 -809 63 -189 61 -136 64 -1170 4 -1042 3 -1066 -57 -1254 -140 -437
-534 -778 -981 -851 -64 -10 -179 -16 -359 -17 l-265 -3 270 -5 c149 -3 239
-7 200 -9 l-70 -4 65 -6 c62 -6 65 -7 68 -34 2 -15 8 -27 13 -27 5 0 9 -9 9
-20 0 -13 9 -22 27 -26 15 -4 38 -13 52 -20 14 -8 32 -14 39 -14 7 0 23 -11
36 -25 13 -14 29 -25 35 -25 7 0 32 -16 55 -35 24 -19 48 -35 53 -35 22 0 75
-34 95 -61 20 -26 48 -43 33 -19 -10 16 11 12 25 -5 7 -8 18 -15 25 -15 7 0
15 -7 19 -15 3 -8 12 -15 21 -15 17 0 50 -17 80 -41 29 -23 53 -30 59 -16 3 9
5 9 5 0 1 -7 8 -13 17 -13 13 0 14 -3 5 -14 -17 -20 24 -61 69 -69 25 -5 31
-4 20 3 -13 9 -13 11 -1 19 9 6 22 6 32 0 19 -10 74 13 61 26 -4 4 0 5 8 3 35
-12 255 126 380 239 279 251 456 558 531 923 l24 115 0 1315 c0 1224 -1 1321
-18 1405 -69 345 -224 640 -463 879 -232 232 -515 385 -852 459 -96 21 -113
21 -1387 23 -1000 2 -1310 -1 -1380 -11z"/>
<path d="M2677 5349 c-316 -77 -566 -336 -631 -651 -14 -68 -16 -190 -14 -980
1 -497 5 -820 8 -718 5 164 6 174 11 90 3 -65 8 -88 13 -73 l8 22 26 -25 c15
-13 37 -24 49 -24 37 0 68 -16 82 -44 8 -14 19 -26 24 -26 5 0 18 -11 29 -25
10 -13 22 -24 26 -23 13 4 88 -40 131 -76 24 -20 55 -39 70 -42 14 -3 33 -9
41 -14 8 -5 40 -21 70 -36 30 -15 63 -34 73 -42 9 -8 17 -12 17 -9 0 3 21 -16
46 -43 26 -28 53 -50 60 -50 7 0 28 -6 46 -14 18 -8 51 -19 74 -25 22 -6 51
-20 65 -31 13 -12 39 -28 59 -37 19 -9 46 -24 60 -33 14 -10 36 -21 49 -25 14
-4 32 -15 40 -25 9 -9 32 -23 51 -30 19 -7 60 -34 90 -60 36 -31 68 -49 93
-53 21 -3 51 -17 68 -31 17 -14 43 -26 57 -26 15 0 34 -5 42 -10 12 -8 10 -10
-8 -10 -13 0 -20 -4 -17 -10 3 -5 16 -10 28 -10 13 0 29 -9 37 -20 10 -14 16
-16 22 -7 5 9 10 8 20 -4 7 -9 36 -20 63 -24 150 -20 124 -34 -72 -38 -93 -2
95 -3 417 -2 572 1 587 1 654 23 244 77 426 230 530 444 87 178 80 92 84 1171
3 1100 7 1039 -90 1237 -46 94 -62 116 -157 211 -95 95 -117 111 -211 157
-196 96 -137 92 -1215 91 -891 0 -944 -1 -1018 -20z m2213 -340 c149 -67 195
-243 97 -371 -50 -66 -107 -93 -192 -93 -84 1 -135 24 -187 85 -55 64 -72 147
-46 234 15 51 99 137 148 153 57 18 130 15 180 -8z m-919 -322 c181 -47 313
-123 455 -259 404 -388 417 -1018 32 -1424 -139 -145 -280 -232 -473 -290 -83
-26 -104 -28 -265 -28 -193 0 -252 11 -405 75 -212 88 -406 273 -510 484 -71
144 -96 247 -102 405 -6 157 5 247 48 375 116 347 422 610 792 681 111 21 309
12 428 -19z"/>
<path d="M3585 4335 c-107 -23 -225 -86 -305 -161 -130 -123 -198 -268 -208
-440 -10 -188 55 -353 192 -489 136 -136 266 -189 461 -188 94 0 122 4 194 28
345 117 526 482 410 827 -101 300 -434 490 -744 423z"/>
<path d="M1440 3366 c0 -2 7 -6 15 -10 8 -3 15 -1 15 4 0 6 -7 10 -15 10 -8 0
-15 -2 -15 -4z"/>
<path d="M1520 3326 c0 -2 7 -6 15 -10 8 -3 15 -1 15 4 0 6 -7 10 -15 10 -8 0
-15 -2 -15 -4z"/>
<path d="M3080 2406 c0 -2 7 -6 15 -10 8 -3 15 -1 15 4 0 6 -7 10 -15 10 -8 0
-15 -2 -15 -4z"/>
<path d="M3130 2386 c0 -2 7 -7 16 -10 8 -3 12 -2 9 4 -6 10 -25 14 -25 6z"/>
<path d="M4453 1603 c9 -2 25 -2 35 0 9 3 1 5 -18 5 -19 0 -27 -2 -17 -5z"/>
<path d="M4948 1323 c7 -3 16 -2 19 1 4 3 -2 6 -13 5 -11 0 -14 -3 -6 -6z"/>
<path d="M4985 1300 c3 -5 14 -10 24 -10 9 0 23 -6 31 -12 8 -7 6 -3 -4 10
-18 21 -64 32 -51 12z"/>
</g>
</svg>
